<svg xmlns="http://www.w3.org/2000/svg" width="280" height="44" viewBox="0 0 280 44" fill="none">
<path d="M43.913 18.2362C40.749 18.2362 38.1839 15.72 38.1839 12.6164C38.1839 11.0655 38.8256 9.66057 39.8599 8.64422L35.1006 3.97571C34.0645 4.99206 32.6322 5.6198 31.0512 5.6198C27.8872 5.6198 25.3221 3.10355 25.3221 0H18.5927C18.5927 3.10531 16.0275 5.62156 12.8636 5.62156C11.2825 5.62156 9.85026 4.99206 8.81414 3.97747L4.05483 8.64598C5.09094 9.66233 5.7309 11.0673 5.7309 12.6182C5.7309 15.7217 3.16571 18.238 0.00179258 18.238L0 24.8407C3.16391 24.8407 5.7309 27.357 5.7309 30.4605C5.7309 32.0114 5.08915 33.4164 4.05483 34.4327L8.81414 39.1012C9.85026 38.0849 11.2825 37.4571 12.8636 37.4571C16.0275 37.4571 18.5927 39.9734 18.5927 43.0769H25.3221C25.3221 39.9716 27.8872 37.4554 31.0512 37.4554C32.6322 37.4554 34.0645 38.0831 35.1006 39.0995L39.8599 34.4309C38.8238 33.4146 38.1839 32.0096 38.1839 30.4587C38.1839 27.3552 40.749 24.839 43.913 24.839V18.2362ZM32.9836 27.7842L21.9556 34.03L10.9276 27.7842V15.2927L21.9556 9.04689L32.9836 15.2927V27.7842Z" fill="#013311"/>
<path d="M68.4893 7.09684C73.0694 7.09684 76.3014 9.70453 77.9775 12.9136L74.0105 15.2012C72.3738 12.8345 70.8609 11.7513 68.5305 11.7513C66.1177 11.7513 64.5223 13.0349 64.5223 14.9603C64.5223 16.4444 65.709 17.6085 68.0394 18.4507L70.0022 19.1734C76.1777 21.2993 78.7537 23.747 78.7537 27.6383C78.7537 30.246 77.7319 32.291 75.6865 33.7768C73.6412 35.2609 71.2696 35.9836 68.6112 35.9836C66.1159 35.9836 63.9092 35.3418 61.9858 34.0582C60.1054 32.7745 58.8362 31.1305 58.1837 29.0837L62.3139 26.9578C63.5812 29.8064 65.709 31.2096 68.6112 31.2096C71.3521 31.2096 73.193 29.926 73.193 27.5592C73.193 25.5933 72.0064 24.7915 68.5305 23.5079L66.7308 22.8256C61.8639 21.1006 59.2055 18.9343 59.2055 14.8021C59.2055 12.4757 60.1054 10.6294 61.8639 9.22625C63.6224 7.8213 65.8309 7.10036 68.4893 7.10036V7.09684Z" fill="#013311"/>
<path d="M94.4567 14.3185C96.6239 14.3185 98.4649 15.0817 100.019 16.6449C101.614 18.2098 102.391 20.4957 102.391 23.5448V35.5792H97.1151V23.8648C97.1151 20.4957 95.1522 18.8499 92.535 18.8499C91.1028 18.8499 89.8766 19.3721 88.9373 20.3744C87.9962 21.3767 87.4656 22.3403 87.4226 23.2634V35.5792H82.147V7.21817H87.4226V18.8112C87.7094 17.8881 88.4856 16.9262 89.7547 15.8835C91.0221 14.8408 92.5745 14.3185 94.4567 14.3185Z" fill="#013311"/>
<path d="M106.48 7.21817H111.755V12.1522H106.48V7.21817ZM106.48 14.7194H111.755V35.5809H106.48V14.7194Z" fill="#013311"/>
<path d="M127.949 14.3185C130.608 14.3185 133.021 15.2821 135.188 17.2076C137.355 19.0925 138.459 21.7407 138.459 25.1502C138.459 28.5597 137.355 31.2078 135.188 33.1333C133.021 35.0182 130.608 35.9818 127.949 35.9818C124.678 35.9818 122.265 34.2569 121.406 32.611H121.12V43.0681H115.844V14.7194H121.12V17.6876H121.406C122.265 16.0435 124.678 14.3185 127.949 14.3185ZM122.837 29.7642C124.104 30.8474 125.537 31.4083 127.213 31.4083C128.889 31.4083 130.321 30.8474 131.506 29.7642C132.734 28.681 133.347 27.1161 133.347 25.1502C133.347 23.1843 132.734 21.6193 131.506 20.5362C130.319 19.453 128.889 18.8921 127.213 18.8921C125.537 18.8921 124.104 19.453 122.837 20.5362C121.611 21.6193 120.996 23.1843 120.996 25.1502C120.996 27.1161 121.609 28.681 122.837 29.7642Z" fill="#013311"/>
<path d="M150.591 7.09684C155.172 7.09684 158.404 9.70453 160.08 12.9136L156.113 15.2012C154.476 12.8345 152.963 11.7513 150.633 11.7513C148.22 11.7513 146.624 13.0349 146.624 14.9603C146.624 16.4444 147.811 17.6085 150.142 18.4507L152.104 19.1734C158.28 21.2993 160.856 23.747 160.856 27.6383C160.856 30.246 159.834 32.291 157.789 33.7768C155.743 35.2609 153.372 35.9836 150.713 35.9836C148.218 35.9836 146.011 35.3418 144.088 34.0582C142.208 32.7745 140.938 31.1305 140.286 29.0837L144.416 26.9578C145.683 29.8064 147.811 31.2096 150.713 31.2096C153.454 31.2096 155.295 29.926 155.295 27.5592C155.295 25.5933 154.109 24.7915 150.633 23.5079L148.833 22.8256C143.966 21.1006 141.308 18.9343 141.308 14.8021C141.308 12.4757 142.208 10.6294 143.966 9.22625C145.725 7.8213 147.933 7.10036 150.591 7.10036V7.09684Z" fill="#013311"/>
<path d="M174.903 14.7194V18.9712H170.364V29.2806C170.364 30.6047 171.059 31.2465 172.409 31.2465C173.105 31.2465 173.963 31.0865 174.904 30.8052V35.0182C173.8 35.5405 172.491 35.8201 170.937 35.8201C167.216 35.8201 165.129 34.4556 165.129 30.4042V18.9712H162.143V14.7194H165.129V9.3845H170.364V14.7194H174.903Z" fill="#013311"/>
<path d="M186.841 35.9818C184.183 35.9818 181.729 35.0182 179.561 33.1333C177.394 31.2078 176.329 28.5597 176.329 25.1502C176.329 21.7407 177.392 19.0925 179.561 17.2076C181.729 15.2821 184.183 14.3185 186.841 14.3185C190.113 14.3185 192.525 16.0435 193.384 17.6876H193.671V14.7194H198.905V35.5809H193.671V32.6128H193.384C192.525 34.2569 190.113 35.9818 186.841 35.9818ZM183.242 29.7642C184.468 30.8474 185.9 31.4083 187.576 31.4083C189.252 31.4083 190.684 30.8474 191.911 29.7642C193.178 28.681 193.791 27.1161 193.791 25.1502C193.791 23.1843 193.178 21.6193 191.911 20.5362C190.684 19.453 189.252 18.8921 187.576 18.8921C185.9 18.8921 184.468 19.453 183.242 20.5362C182.055 21.6193 181.442 23.1843 181.442 25.1502C181.442 27.1161 182.055 28.681 183.242 29.7642Z" fill="#013311"/>
<path d="M214.555 14.7194V18.9712H210.016V29.2806C210.016 30.6047 210.711 31.2465 212.061 31.2465C212.757 31.2465 213.615 31.0865 214.556 30.8052V35.0182C213.452 35.5405 212.144 35.8201 210.589 35.8201C206.868 35.8201 204.781 34.4556 204.781 30.4042V18.9712H201.795V14.7194H204.781V9.3845H210.016V14.7194H214.555Z" fill="#013311"/>
<path d="M217.442 7.21817H222.718V12.1522H217.442V7.21817ZM217.442 14.7194H222.718V35.5809H217.442V14.7194Z" fill="#013311"/>
<path d="M232.988 15.0412C235.564 14.0776 238.018 14.0776 240.595 15.0412C243.171 15.9644 245.504 17.568 246.852 20.4571C248.284 23.3056 248.284 27.0756 246.852 29.9242C245.502 32.7728 243.171 34.3764 240.595 35.2996C238.019 36.2227 235.565 36.2227 232.988 35.2996C230.41 34.3764 228.121 32.7728 226.689 29.9242C225.339 27.0756 225.339 23.3056 226.689 20.4571C228.121 17.568 230.41 15.9644 232.988 15.0412ZM230.779 25.1906C230.779 27.1161 231.392 28.6406 232.62 29.7642C233.846 30.8474 235.237 31.4083 236.792 31.4083C238.387 31.4083 239.778 30.8474 241.004 29.7642C242.23 28.6406 242.845 27.1161 242.845 25.1906C242.845 23.2248 242.232 21.7002 241.004 20.5766C239.778 19.453 238.387 18.8921 236.792 18.8921C235.196 18.8921 233.807 19.453 232.579 20.5766C231.392 21.7002 230.779 23.2248 230.779 25.1906Z" fill="#013311"/>
<path d="M263.187 14.3185C265.355 14.3185 267.196 15.0817 268.75 16.6449C270.345 18.2098 271.121 20.4957 271.121 23.5448V35.5792H265.846V23.8648C265.846 20.4957 263.883 18.8499 261.266 18.8499C259.833 18.8499 258.607 19.3721 257.666 20.3744C256.725 21.3767 256.194 22.3403 256.153 23.2634V35.5792H250.878V14.7177H256.153V18.8094C256.44 17.8863 257.216 16.9245 258.485 15.8817C259.753 14.839 261.307 14.3185 263.187 14.3185Z" fill="#013311"/>
<path d="M277.761 13.7136C278.344 13.7136 278.858 13.9229 279.313 14.3414C279.769 14.7599 280 15.2839 280 15.9116C280 16.5394 279.769 17.0634 279.313 17.4819C278.858 17.9004 278.345 18.1096 277.761 18.1096C277.383 18.1096 277.024 18.0164 276.684 17.8388C276.343 17.6595 276.069 17.3957 275.843 17.0563C275.624 16.7117 275.517 16.3301 275.517 15.9116C275.517 15.4931 275.626 15.1116 275.843 14.7722C276.286 14.0829 277.012 13.7136 277.761 13.7136ZM277.761 17.6542C278.216 17.6542 278.627 17.4871 278.98 17.1618C279.339 16.8295 279.518 16.411 279.518 15.9116C279.518 15.4122 279.339 14.9938 278.98 14.6684C278.627 14.3361 278.216 14.1691 277.761 14.1691C277.306 14.1691 276.89 14.3361 276.53 14.6684C276.176 14.9955 275.997 15.414 275.997 15.9116C275.997 16.4093 276.176 16.8295 276.53 17.1618C276.888 17.4889 277.299 17.6542 277.761 17.6542ZM276.928 14.73H277.722C278.279 14.73 278.638 15.0377 278.638 15.4562C278.638 15.8202 278.451 16.0541 278.086 16.1701L278.765 17.044H278.342L277.707 16.1877H277.297V17.044H276.926V14.7282L276.928 14.73ZM277.754 15.043H277.291V15.887H277.754C278.094 15.887 278.261 15.7446 278.261 15.4685C278.261 15.1924 278.069 15.043 277.754 15.043Z" fill="#013311"/>
</svg>