<svg xmlns="http://www.w3.org/2000/svg" width="512" height="512" viewBox="0 0 512 512"><path fill="#0053A0" d="M512 472c0 22.094-17.906 40-40 40H40c-22.094 0-40-17.906-40-40V40C0 17.906 17.906 0 40 0h432c22.094 0 40 17.906 40 40v432z"/><path fill="none" stroke="#FFF" stroke-width="10" stroke-linecap="round" stroke-linejoin="round" stroke-miterlimit="10" d="M427.781 156.665c17.006 29.185 26.747 63.122 26.747 99.335 0 109.128-88.466 197.593-197.593 197.593S59.341 365.128 59.341 256 147.807 58.407 256.935 58.407c16.668 0 32.854 2.064 48.317 5.95"/><path fill="#FCB131" d="M355.205 105.641s-29.487-23.438-28.391-32.299 40.361 16.625 40.361 16.625 28.518-.416 31.288 1.504 1.835 1.903-.068 3.738-15.512 4.859-15.546 6.728l-.034 1.869.892 2.353 22.64 14.433s18.239-.603 19.624.357c1.385.96-14.637 8.147-16.583 12.318-1.945 4.171-3.593 17.696-5.505 19.998-1.911 2.302-5.276-18.324-6.185-19.743s-23.532-16.787-23.532-16.787-1.181 13.533-2.633 16.311c-1.453 2.779-16.328-27.405-16.328-27.405z"/><ellipse fill="#FCB131" stroke="#FFF" stroke-width="10" stroke-miterlimit="10" cx="256" cy="256" rx="221.974" ry="106.161"/><ellipse fill="#0053A0" cx="262.542" cy="256" rx="175.243" ry="83.811"/><path fill="#FFF" d="M387.398 277.179l35.121-42.515-35.58.24-15.253 19.169-10.167-19.409-33.734.24 19.408 39.742-24.955 25.879s20.795-75.326-42.053-64.937l4.621-24.572h-34.659l-21.72 104.981H261.7s8.491-41.858 9.35-44.505c.354-1.089 3.744-11.326 14.041-9.214 4.763.977 9.112 2.201 8.51 11.798l-6.946 41.921h60.076l15.712-16.636 8.318 16.636h14.124c6.007-2.802 11.594-5.809 16.713-8.996l-14.2-29.822z"/></svg>