<?xml version="1.0" encoding="utf-8"?>
<!-- Generator: Adobe Illustrator 26.5.0, SVG Export Plug-In . SVG Version: 6.00 Build 0)  -->
<svg version="1.1" id="Layer_1" xmlns="http://www.w3.org/2000/svg" xmlns:xlink="http://www.w3.org/1999/xlink" x="0px" y="0px"
	 viewBox="0 0 688.99 101.86" style="enable-background:new 0 0 688.99 101.86;" xml:space="preserve">
    <style type="text/css">
        .st0{fill:#1e3d5a;}
        .st1{fill:#f47d48;}
    </style>
    <g>
        <g>
            <path class="st0" d="M193.56,77.54c-1.5-0.95-1.57-2.45-0.19-4.5l18.77-28.42c1.38-2.05,3.44-3.55,6.18-4.49
                c2.75-0.95,6.38-1.42,10.89-1.41l40.01,0.05c4.57,0.01,7.56,0.49,8.97,1.44c1.4,0.95,1.42,2.45,0.04,4.5l-18.77,28.42
                c-1.38,2.05-3.39,3.55-6.04,4.49c-2.65,0.95-6.26,1.42-10.84,1.41l-40.01-0.05C198.07,78.98,195.06,78.5,193.56,77.54z
                M223.08,69.2c0.59,0.42,1.83,0.63,3.72,0.63l3.53,0.01c1.96,0,3.48-0.2,4.56-0.62c1.08-0.42,2.01-1.21,2.8-2.39l10.51-15.89
                c0.79-1.18,0.92-1.97,0.4-2.39c-0.52-0.42-1.76-0.64-3.73-0.64h-3.53c-1.9,0-3.42,0.21-4.56,0.63c-1.15,0.42-2.11,1.21-2.9,2.39
                l-10.51,15.89C222.59,67.99,222.5,68.79,223.08,69.2z"/>
            <polygon class="st1" points="458.02,69.88 478.57,38.76 452.67,38.75 426.02,79.04 470.15,79.04 481.15,69.88 		"/>
            <path class="st0" d="M434.45,40.22c-1.44-0.95-4.27-1.46-8.95-1.46l-58.93-0.01l-10.99,9.15l10.99,0.01l-20.64,31.11l52.95,0.07
                c4.51,0.01,8.11-0.46,10.79-1.41c2.68-0.95,4.71-2.44,6.09-4.49l18.77-28.42C435.89,42.71,435.89,41.18,434.45,40.22z
                M404.5,50.99l-10.51,15.89c-0.79,1.18-1.74,1.97-2.85,2.39c-1.11,0.42-2.65,0.62-4.61,0.62l-8.63-0.01l14.58-21.98h8.59
                c1.96,0,3.22,0.28,3.77,0.7C405.4,49.02,405.29,49.82,404.5,50.99z"/>
            <path class="st1" d="M563.63,79.04L552,64.01l-9.92,15.02L516.19,79l26.64-40.25h18.69l11.58,15.09l9.98-15.09h25.91l-26.62,40.28
                L563.63,79.04z"/>
            <polygon class="st1" points="534.27,38.75 508.36,38.75 481.73,79.04 507.64,79.04 		"/>
            <polygon class="st1" points="651.29,58.86 683.74,38.75 657.8,38.75 633.16,54.28 643.41,38.75 617.5,38.75 590.84,79.04 
                616.75,79.04 626.97,63.56 631.06,79.04 656.94,79.04 		"/>
            <polygon class="st0" points="343.83,38.75 307.76,38.75 261.64,79.04 300.43,79.04 311.43,69.88 297.31,69.86 317.92,51.77 
                314.55,79.04 339.95,79.04 		"/>
            <polygon class="st0" points="165.67,69.88 186.23,38.76 160.32,38.75 133.68,79.04 177.81,79.04 188.8,69.88 		"/>
        </g>
        <g>
            <g>
                <path class="st1" d="M119.24,22.86c-6.59,1.78-13.51,4.08-20.65,6.86l6.91,1.43c5.47-2.61,11.06-5.02,16.72-7.21L119.24,22.86z"
                    />
                <path class="st1" d="M45.4,58.21h16.57c6.51-5.21,13.52-10.14,20.9-14.71l-10.24-1.85C63.53,46.46,54.37,51.99,45.4,58.21z"/>
                <path class="st1" d="M134.91,19.46c-3.39,0.53-6.92,1.24-10.59,2.11l2.15,0.78C129.28,21.33,132.09,20.36,134.91,19.46z"/>
                <path class="st1" d="M77.84,38.97l9.65,1.74c4.39-2.58,8.9-5.04,13.5-7.35l-7.54-1.56C88.32,33.94,83.1,36.33,77.84,38.97z"/>
            </g>
            <g>
                <path class="st1" d="M38.11,63.45c-0.49,0.37-0.98,0.74-1.47,1.11C25.25,73.16,14.33,82.89,4.4,93.71h23.96
                    c4.89-7.28,17.26-20.91,27.34-30.27H38.11z"/>
            </g>
            <path class="st0" d="M64.18,93.71c14.56-24.69,35.92-47.78,69.91-67.84C88.38,38.35,50.13,81.23,42.55,93.71H64.18z"/>
            <g>
                <path class="st0" d="M120.34,34.45c-3.04,2.01-5.98,4.05-8.82,6.1c0.97,3.17,1.5,6.54,1.5,10.03c0,18.86-15.29,34.15-34.15,34.15
                    c-0.57,0-1.14-0.02-1.7-0.04c-2.4,3.09-4.62,6.24-6.66,9.47l-0.06,0.12c2.73,0.52,5.55,0.8,8.43,0.8
                    c24.57,0,44.48-19.92,44.48-44.48C123.36,44.89,122.29,39.45,120.34,34.45z"/>
            </g>
            <g>
                <path class="st0" d="M78.88,6.1C54.31,6.1,34.4,26.01,34.4,50.58c0,0.67,0.02,1.33,0.04,1.99c3.49-2.17,7.01-4.25,10.55-6.23
                    c2.09-16.86,16.46-29.91,33.88-29.91c4.09,0,8.01,0.72,11.64,2.04l15.33-3.26C98.37,9.49,89.02,6.1,78.88,6.1z"/>
            </g>
            <path class="st0" d="M118.3,18.91c-16.13,1.52-40.86,7.42-49.98,9.93c-8.94,2.45-16.2,5.08-20.87,6.78
                c-1.65,3.41-12.56,13.03-13.01,16.96c9.57-5.7,24.98-13.15,35.84-17.8c9.25-3.96,27.14-10.01,30.27-10.93
                C103.82,22.87,118.3,18.91,118.3,18.91z"/>
        </g>
    </g>
</svg>