<?xml version="1.0" encoding="utf-8"?>
<!-- Generator: Adobe Illustrator 26.5.0, SVG Export Plug-In . SVG Version: 6.00 Build 0)  -->
<svg version="1.1" id="Layer_1" xmlns="http://www.w3.org/2000/svg" xmlns:xlink="http://www.w3.org/1999/xlink" x="0px" y="0px"
	 viewBox="0 0 689 101.9" style="enable-background:new 0 0 689 101.9;" xml:space="preserve">
<style type="text/css">
	.st0{fill:#FFFFFF;}
	.st1{fill:#F37D48;}
</style>
<g>
	<g>
		<path class="st0" d="M193.6,77.5c-1.5-1-1.6-2.5-0.2-4.5l18.8-28.4c1.4-2.1,3.4-3.5,6.2-4.5c2.7-0.9,6.4-1.4,10.9-1.4l40,0.1
			c4.6,0,7.6,0.5,9,1.4c1.4,1,1.4,2.5,0,4.5l-18.8,28.4c-1.4,2-3.4,3.5-6,4.5c-2.6,0.9-6.3,1.4-10.8,1.4l-40-0.1
			C198.1,79,195.1,78.5,193.6,77.5z M223.1,69.2c0.6,0.4,1.8,0.6,3.7,0.6l3.5,0c2,0,3.5-0.2,4.6-0.6c1.1-0.4,2-1.2,2.8-2.4
			l10.5-15.9c0.8-1.2,0.9-2,0.4-2.4c-0.5-0.4-1.8-0.6-3.7-0.6h-3.5c-1.9,0-3.4,0.2-4.6,0.6c-1.1,0.4-2.1,1.2-2.9,2.4l-10.5,15.9
			C222.6,68,222.5,68.8,223.1,69.2z"/>
		<polygon class="st1" points="458,69.9 478.6,38.8 452.7,38.8 426,79 470.1,79 481.1,69.9 		"/>
		<path class="st0" d="M434.4,40.2c-1.4-1-4.3-1.5-9-1.5l-58.9,0l-11,9.2l11,0L345.9,79l52.9,0.1c4.5,0,8.1-0.5,10.8-1.4
			c2.7-0.9,4.7-2.4,6.1-4.5l18.8-28.4C435.9,42.7,435.9,41.2,434.4,40.2z M404.5,51L394,66.9c-0.8,1.2-1.7,2-2.8,2.4
			c-1.1,0.4-2.6,0.6-4.6,0.6l-8.6,0l14.6-22h8.6c2,0,3.2,0.3,3.8,0.7C405.4,49,405.3,49.8,404.5,51z"/>
		<path class="st1" d="M563.6,79L552,64l-9.9,15l-25.9,0l26.6-40.2h18.7l11.6,15.1l10-15.1H609L582.4,79L563.6,79z"/>
		<polygon class="st1" points="534.3,38.8 508.4,38.8 481.7,79 507.6,79 		"/>
		<polygon class="st1" points="651.3,58.9 683.7,38.8 657.8,38.8 633.2,54.3 643.4,38.8 617.5,38.8 590.8,79 616.7,79 627,63.6 
			631.1,79 656.9,79 		"/>
		<polygon class="st0" points="343.8,38.8 307.8,38.8 261.6,79 300.4,79 311.4,69.9 297.3,69.9 317.9,51.8 314.6,79 339.9,79 		"/>
		<polygon class="st0" points="165.7,69.9 186.2,38.8 160.3,38.8 133.7,79 177.8,79 188.8,69.9 		"/>
	</g>
	<g>
		<g>
			<path class="st1" d="M119.2,22.9c-6.6,1.8-13.5,4.1-20.6,6.9l6.9,1.4c5.5-2.6,11.1-5,16.7-7.2L119.2,22.9z"/>
			<path class="st1" d="M45.4,58.2H62c6.5-5.2,13.5-10.1,20.9-14.7l-10.2-1.9C63.5,46.5,54.4,52,45.4,58.2z"/>
			<path class="st1" d="M134.9,19.5c-3.4,0.5-6.9,1.2-10.6,2.1l2.1,0.8C129.3,21.3,132.1,20.4,134.9,19.5z"/>
			<path class="st1" d="M77.8,39l9.7,1.7c4.4-2.6,8.9-5,13.5-7.3l-7.5-1.6C88.3,33.9,83.1,36.3,77.8,39z"/>
		</g>
		<g>
			<path class="st1" d="M38.1,63.4c-0.5,0.4-1,0.7-1.5,1.1C25.3,73.2,14.3,82.9,4.4,93.7h24c4.9-7.3,17.3-20.9,27.3-30.3H38.1z"/>
		</g>
		<path class="st0" d="M64.2,93.7c14.6-24.7,35.9-47.8,69.9-67.8c-45.7,12.5-84,55.4-91.5,67.8H64.2z"/>
		<g>
			<path class="st0" d="M120.3,34.4c-3,2-6,4-8.8,6.1c1,3.2,1.5,6.5,1.5,10c0,18.9-15.3,34.1-34.1,34.1c-0.6,0-1.1,0-1.7,0
				c-2.4,3.1-4.6,6.2-6.7,9.5l-0.1,0.1c2.7,0.5,5.5,0.8,8.4,0.8c24.6,0,44.5-19.9,44.5-44.5C123.4,44.9,122.3,39.5,120.3,34.4z"/>
		</g>
		<g>
			<path class="st0" d="M78.9,6.1C54.3,6.1,34.4,26,34.4,50.6c0,0.7,0,1.3,0,2c3.5-2.2,7-4.2,10.6-6.2c2.1-16.9,16.5-29.9,33.9-29.9
				c4.1,0,8,0.7,11.6,2l15.3-3.3C98.4,9.5,89,6.1,78.9,6.1z"/>
		</g>
		<path class="st0" d="M118.3,18.9c-16.1,1.5-40.9,7.4-50,9.9c-8.9,2.5-16.2,5.1-20.9,6.8c-1.7,3.4-12.6,13-13,17
			c9.6-5.7,25-13.2,35.8-17.8c9.2-4,27.1-10,30.3-10.9C103.8,22.9,118.3,18.9,118.3,18.9z"/>
	</g>
</g>
</svg>
